<svg xmlns="http://www.w3.org/2000/svg" viewBox="0 0 100 100">
  <defs>
    <linearGradient id="grad" x1="0%" y1="0%" x2="100%" y2="100%">
      <stop offset="0%" style="stop-color:#9333EA;stop-opacity:1" />
      <stop offset="70%" style="stop-color:#7928CA;stop-opacity:1" />
    </linearGradient>
  </defs>

  <!-- 배경 -->
  <rect x="8" y="8" width="84" height="84" rx="18" fill="url(#grad)" />

  <!-- B와 K를 개별 path로 분리 -->
  <g fill="none" stroke="white" stroke-width="9" stroke-linecap="round" stroke-linejoin="round">
    <!-- B -->
    <path d="M26 33 L26 70" />
    <path d="M26 33 L41 33" />
    <path d="M26 50 L41 50" />
    <path d="M26 70 L41 70" />
    <path d="M41 33 Q49 33 49 41 Q49 49 41 50" />
    <path d="M41 50 Q51 50 51 58 Q51 70 41 70" />

    <!-- K -->
    <path d="M62 33 L62 70" />
    <path d="M62 48 L77 33" />
    <path d="M62 48 L77 70" />
  </g>

  <!-- 미니멀한 하이라이트 -->
  <rect x="26" y="26" width="4" height="4" rx="2" fill="white" opacity="0.4" />
</svg>
